# xmcd
#
# Track frame offsets: 
#        150
#        30947
#        52175
#        77270
#        100932
#        124112
#        145770
#        166505
#        185405
#
# Disc length: 2753 seconds
#
# Revision: 0
# Processed by: cddbd v1.5.2PL0 Copyright (c) Steve Scherf et al.
# Submitted via: ExactAudioCopyFreeDBPlugin 1.0
#
DISCID=640abf09
DTITLE=Ruby Wilson - A Song For You
DYEAR=2010
DGENRE=Blues
TTITLE0=At Last
TTITLE1=Fever
TTITLE2=A Song For You
TTITLE3=What A Difference A Day Made
TTITLE4=Cry Me A River
TTITLE5=The Nearness Of You
TTITLE6=How Insensitive
TTITLE7=A Change Is Gonna Come
TTITLE8=Fool That I Am
EXTD=
EXTT0=
EXTT1=
EXTT2=
EXTT3=
EXTT4=
EXTT5=
EXTT6=
EXTT7=
EXTT8=
PLAYORDER=
